<?xml version="1.0" encoding="UTF-8"?>
<!DOCTYPE svg PUBLIC "-//W3C//DTD SVG 1.1//EN" "http://www.w3.org/Graphics/SVG/1.1/DTD/svg11.dtd">
<svg xmlns="http://www.w3.org/2000/svg" xmlns:xlink="http://www.w3.org/1999/xlink" version="1.1" width="565px" height="504px" viewBox="-0.5 -0.5 565 504"><defs/><g><ellipse cx="257.5" cy="251.5" rx="195.5" ry="195.5" fill="#f7f7f7" stroke="none" pointer-events="all"/><path d="M 356.92 105.28 Q 356.92 105.28 495 275" fill="none" stroke="#999999" stroke-width="2" stroke-miterlimit="10" pointer-events="stroke"/><ellipse cx="338" cy="82" rx="30" ry="30" fill="#cccccc" stroke="none" pointer-events="all"/><rect x="330.44" y="66.25" width="15.12" height="31.5" fill="none" stroke="none" pointer-events="all"/><path d="M 330.44 97.75 L 330.44 67.83 C 330.44 67.41 330.6 67.01 330.9 66.71 C 331.19 66.42 331.58 66.25 332 66.25 L 344 66.25 C 344.42 66.25 344.81 66.42 345.1 66.71 C 345.4 67.01 345.56 67.41 345.56 67.83 L 345.56 97.75 Z M 332.71 94.65 L 343.29 94.65 L 343.29 93.13 L 332.71 93.13 Z M 343.29 91.61 L 343.29 90.06 L 332.71 90.06 L 332.71 91.61 Z M 332.71 72.42 L 343.29 72.42 L 343.29 70.87 L 332.71 70.87 Z" fill="#ffffff" stroke="none" pointer-events="all"/><ellipse cx="324" cy="238" rx="30" ry="30" fill="#cccccc" stroke="none" pointer-events="all"/><rect x="305.25" y="232.38" width="37.5" height="11.25" fill="none" stroke="none" pointer-events="all"/><path d="M 305.25 233.76 C 305.29 232.98 305.96 232.37 306.76 232.38 L 341.2 232.38 C 342.01 232.37 342.67 232.98 342.71 233.76 L 342.75 242.15 C 342.75 242.55 342.59 242.92 342.29 243.2 C 342 243.47 341.61 243.62 341.2 243.61 L 306.76 243.61 C 305.93 243.61 305.25 242.96 305.25 242.15 Z M 309.79 240.95 C 309.79 240.24 309.19 239.67 308.46 239.67 C 307.73 239.67 307.14 240.24 307.14 240.95 C 307.14 241.66 307.73 242.23 308.46 242.23 C 309.19 242.23 309.79 241.66 309.79 240.95 Z M 332.47 240.84 C 332.24 240.84 332.05 241.02 332.05 241.24 C 332.05 241.46 332.24 241.64 332.47 241.64 L 340.03 241.64 C 340.26 241.64 340.44 241.46 340.44 241.24 C 340.44 241.02 340.26 240.84 340.03 240.84 Z M 332.47 239.45 C 332.24 239.45 332.05 239.63 332.05 239.86 C 332.05 240.08 332.24 240.26 332.47 240.26 L 340.03 240.26 C 340.26 240.26 340.44 240.08 340.44 239.86 C 340.44 239.63 340.26 239.45 340.03 239.45 Z M 332.47 238.03 C 332.24 238.03 332.05 238.21 332.05 238.43 C 332.05 238.65 332.24 238.83 332.47 238.83 L 340.03 238.83 C 340.26 238.83 340.44 238.65 340.44 238.43 C 340.44 238.21 340.26 238.03 340.03 238.03 Z" fill="#ffffff" stroke="none" pointer-events="all"/><ellipse cx="197" cy="323" rx="25" ry="25" fill="#cccccc" stroke="none" pointer-events="all"/><rect x="184.19" y="310.19" width="25.63" height="25.63" fill="none" stroke="none" pointer-events="all"/><path d="M 207.6 323.41 L 205.06 325.96 L 204.23 325.14 L 205.79 323.58 L 197.58 323.58 L 197.58 331.79 L 199.14 330.23 L 199.96 331.06 L 197.41 333.6 C 197.3 333.72 197.15 333.77 197 333.77 C 196.85 333.77 196.7 333.72 196.59 333.6 L 194.04 331.06 L 194.86 330.23 L 196.42 331.79 L 196.42 323.58 L 188.21 323.58 L 189.77 325.14 L 188.95 325.96 L 186.4 323.41 C 186.17 323.18 186.17 322.82 186.4 322.59 L 188.95 320.04 L 189.77 320.86 L 188.21 322.42 L 196.42 322.42 L 196.42 314.21 L 194.86 315.77 L 194.04 314.94 L 196.59 312.4 C 196.82 312.17 197.18 312.17 197.41 312.4 L 199.96 314.94 L 199.14 315.77 L 197.58 314.21 L 197.58 322.42 L 205.79 322.42 L 204.23 320.86 L 205.06 320.04 L 207.6 322.59 C 207.83 322.82 207.83 323.18 207.6 323.41 M 197 334.65 C 190.58 334.65 185.35 329.42 185.35 323 C 185.35 316.58 190.58 311.35 197 311.35 C 203.42 311.35 208.65 316.58 208.65 323 C 208.65 329.42 203.42 334.65 197 334.65 M 197 310.19 C 189.94 310.19 184.19 315.94 184.19 323 C 184.19 330.06 189.94 335.81 197 335.81 C 204.06 335.81 209.81 330.06 209.81 323 C 209.81 315.94 204.06 310.19 197 310.19" fill="#ffffff" stroke="none" pointer-events="all"/><ellipse cx="40" cy="235" rx="40" ry="40" fill="#cccccc" stroke="none" pointer-events="all"/><rect x="20" y="215" width="40" height="40" fill="none" stroke="none" pointer-events="all"/><path d="M 46.09 243.3 C 44.71 243.3 43.71 242.2 43.71 240.95 C 43.71 239.96 44.57 238.69 46.09 238.69 C 47.18 238.69 48.32 239.51 48.32 240.95 C 48.32 242.2 47.39 243.3 46.09 243.3 L 46.09 243.3 Z M 50.91 245.91 L 50.91 224 L 29.35 224 L 29.35 245.91 L 50.91 245.91 Z M 28.66 248.38 C 27.73 248.38 26.87 247.78 26.87 246.62 L 26.87 223.31 C 26.87 222.05 27.86 221.53 28.62 221.53 L 51.61 221.53 C 52.67 221.53 53.36 222.23 53.36 223.33 L 53.36 246.49 C 53.39 247.68 52.7 248.38 51.5 248.38 L 28.66 248.38 Z M 55.16 245.72 L 55.16 243.37 L 60 243.37 L 60 245.72 L 55.16 245.72 Z M 55.16 240.99 L 55.16 238.62 L 60 238.62 L 60 240.99 L 55.16 240.99 Z M 55.16 236.41 L 55.16 234.11 L 60 234.11 L 60 236.41 L 55.16 236.41 Z M 55.16 231.89 L 55.16 229.53 L 60 229.53 L 60 231.89 L 55.16 231.89 Z M 55.16 227.15 L 55.16 224.79 L 60 224.79 L 60 227.15 L 55.16 227.15 Z M 20 227.15 L 20 224.79 L 24.87 224.79 L 24.87 227.15 L 20 227.15 Z M 20 231.89 L 20 229.53 L 24.87 229.53 L 24.87 231.89 L 20 231.89 Z M 20 236.41 L 20 234.11 L 24.87 234.11 L 24.87 236.41 L 20 236.41 Z M 20 240.99 L 20 238.62 L 24.87 238.62 L 24.87 240.99 L 20 240.99 Z M 20 245.72 L 20 243.37 L 24.87 243.37 L 24.87 245.72 L 20 245.72 Z M 29.79 219.87 L 29.79 215 L 32.14 215 L 32.14 219.87 L 29.79 219.87 Z M 34.5 219.87 L 34.5 215 L 36.87 215 L 36.87 219.87 L 34.5 219.87 Z M 39.05 219.87 L 39.05 215 L 41.39 215 L 41.39 219.87 L 39.05 219.87 Z M 43.58 219.87 L 43.58 215 L 45.91 215 L 45.91 219.87 L 43.58 219.87 Z M 48.26 219.87 L 48.26 215 L 50.63 215 L 50.63 219.87 L 48.26 219.87 Z M 48.26 255 L 48.26 250.08 L 50.63 250.08 L 50.63 255 L 48.26 255 Z M 43.58 255 L 43.58 250.08 L 45.91 250.08 L 45.91 255 L 43.58 255 Z M 39.05 255 L 39.05 250.08 L 41.39 250.08 L 41.39 255 L 39.05 255 Z M 34.5 255 L 34.5 250.08 L 36.87 250.08 L 36.87 255 L 34.5 255 Z M 29.79 255 L 29.79 250.08 L 32.14 250.08 L 32.14 255 L 29.79 255 Z" fill="#ffffff" stroke="none" pointer-events="all"/><ellipse cx="407" cy="331" rx="25" ry="25" fill="#fe6357" stroke="none" pointer-events="all"/><rect x="395.31" y="320.38" width="23.38" height="21.25" fill="none" stroke="none" pointer-events="all"/><path d="M 405.94 341.63 C 400.07 341.63 395.31 336.87 395.31 331 C 395.31 325.13 400.07 320.38 405.94 320.38 C 411.81 320.38 416.56 325.13 416.56 331 M 402.9 329.48 L 402.9 327.96 C 402.9 326.29 404.26 324.93 405.94 324.93 C 407.61 324.93 408.97 326.29 408.97 327.96 L 408.97 329.48" fill="none" stroke="#ffffff" stroke-width="2" stroke-miterlimit="10" pointer-events="all"/><path d="M 414.44 331 L 416.56 334.04 L 418.69 331 Z" fill="#ffffff" stroke="none" pointer-events="all"/><rect x="401.38" y="329.48" width="9.11" height="6.07" fill="#ffffff" stroke="none" pointer-events="all"/><path d="M 442 51 Q 442 51 478 53" fill="none" stroke="#999999" stroke-width="2" stroke-miterlimit="10" pointer-events="stroke"/><path d="M 438.44 46.21 Q 438.44 46.21 449.68 9.82" fill="none" stroke="#999999" stroke-width="2" stroke-miterlimit="10" pointer-events="stroke"/><ellipse cx="437" cy="51" rx="5" ry="5" fill="#999999" stroke="none" pointer-events="all"/><ellipse cx="451" cy="5" rx="5" ry="5" fill="#999999" stroke="none" pointer-events="all"/><ellipse cx="483" cy="53" rx="5" ry="5" fill="#999999" stroke="none" pointer-events="all"/><ellipse cx="560" cy="177" rx="5" ry="5" fill="#999999" stroke="none" pointer-events="all"/><ellipse cx="411" cy="445" rx="5" ry="5" fill="#999999" stroke="none" pointer-events="all"/><ellipse cx="125" cy="499" rx="5" ry="5" fill="#999999" stroke="none" pointer-events="all"/><ellipse cx="99" cy="412" rx="5" ry="5" fill="#999999" stroke="none" pointer-events="all"/><ellipse cx="48" cy="147" rx="5" ry="5" fill="#999999" stroke="none" pointer-events="all"/><ellipse cx="67" cy="57" rx="5" ry="5" fill="#999999" stroke="none" pointer-events="all"/><path d="M 366.7 73.27 Q 366.7 73.27 432.2 52.4" fill="none" stroke="#999999" stroke-width="2" stroke-miterlimit="10" pointer-events="stroke"/><path d="M 528.45 257.33 Q 528.45 257.33 558.23 181.67" fill="none" stroke="#999999" stroke-width="2" stroke-miterlimit="10" pointer-events="stroke"/><path d="M 336.07 111.94 Q 336.07 111.94 326.3 208.09" fill="none" stroke="#999999" stroke-width="2" stroke-miterlimit="10" pointer-events="stroke"/><path d="M 382.72 178.42 Q 382.72 178.42 192 138.16" fill="none" stroke="#999999" stroke-width="2" stroke-miterlimit="10" pointer-events="stroke"/><path d="M 382.48 192.15 Q 382.48 192.15 241.1 216.38" fill="none" stroke="#999999" stroke-width="2" stroke-miterlimit="10" pointer-events="stroke"/><path d="M 386.65 204.72 Q 386.65 204.72 351.12 225.46" fill="none" stroke="#999999" stroke-width="2" stroke-miterlimit="10" pointer-events="stroke"/><path d="M 352.61 247.03 Q 352.61 247.03 476.52 289.96" fill="none" stroke="#999999" stroke-width="2" stroke-miterlimit="10" pointer-events="stroke"/><path d="M 294.15 235.01 Q 294.15 235.01 242 227" fill="none" stroke="#999999" stroke-width="2" stroke-miterlimit="10" pointer-events="stroke"/><path d="M 298.19 253.29 Q 298.19 253.29 214.68 305.32" fill="none" stroke="#999999" stroke-width="2" stroke-miterlimit="10" pointer-events="stroke"/><path d="M 317.82 267.36 Q 317.82 267.36 306.9 315.49" fill="none" stroke="#999999" stroke-width="2" stroke-miterlimit="10" pointer-events="stroke"/><path d="M 343.93 260.42 Q 343.93 260.42 389.32 313.32" fill="none" stroke="#999999" stroke-width="2" stroke-miterlimit="10" pointer-events="stroke"/><path d="M 381 334 Q 381 334 327 340" fill="none" stroke="#999999" stroke-width="2" stroke-miterlimit="10" pointer-events="stroke"/><path d="M 430.57 322.68 Q 430.57 322.68 477.48 306.36" fill="none" stroke="#999999" stroke-width="2" stroke-miterlimit="10" pointer-events="stroke"/><path d="M 391.29 350.45 Q 391.29 350.45 322.21 437.79" fill="none" stroke="#999999" stroke-width="2" stroke-miterlimit="10" pointer-events="stroke"/><path d="M 330.8 455.56 Q 330.8 455.56 406.03 445.55" fill="none" stroke="#999999" stroke-width="2" stroke-miterlimit="10" pointer-events="stroke"/><path d="M 302 365 Q 302 365 301 429" fill="none" stroke="#999999" stroke-width="2" stroke-miterlimit="10" pointer-events="stroke"/><path d="M 282.62 355.79 Q 282.62 355.79 191.68 429.32" fill="none" stroke="#999999" stroke-width="2" stroke-miterlimit="10" pointer-events="stroke"/><path d="M 286.71 320.22 Q 286.71 320.22 233.21 248.21" fill="none" stroke="#999999" stroke-width="2" stroke-miterlimit="10" pointer-events="stroke"/><path d="M 202 297 Q 202 297 212 257" fill="none" stroke="#999999" stroke-width="2" stroke-miterlimit="10" pointer-events="stroke"/><path d="M 191.9 347.47 Q 191.9 347.47 174 422" fill="none" stroke="#999999" stroke-width="2" stroke-miterlimit="10" pointer-events="stroke"/><path d="M 172.69 328.83 Q 172.69 328.83 94 349" fill="none" stroke="#999999" stroke-width="2" stroke-miterlimit="10" pointer-events="stroke"/><path d="M 78.88 375.05 Q 78.88 375.05 96.65 407.59" fill="none" stroke="#999999" stroke-width="2" stroke-miterlimit="10" pointer-events="stroke"/><path d="M 157.1 465.65 Q 157.1 465.65 128.54 495.46" fill="none" stroke="#999999" stroke-width="2" stroke-miterlimit="10" pointer-events="stroke"/><path d="M 75.78 252.89 Q 75.78 252.89 179.32 305.32" fill="none" stroke="#999999" stroke-width="2" stroke-miterlimit="10" pointer-events="stroke"/><path d="M 80 232 Q 80 232 182 227" fill="none" stroke="#999999" stroke-width="2" stroke-miterlimit="10" pointer-events="stroke"/><path d="M 42 195.05 Q 42 195.05 47.55 151.98" fill="none" stroke="#999999" stroke-width="2" stroke-miterlimit="10" pointer-events="stroke"/><path d="M 122.77 101.01 Q 122.77 101.01 70.89 60.15" fill="none" stroke="#999999" stroke-width="2" stroke-miterlimit="10" pointer-events="stroke"/><path d="M 169 164 Q 169 164 190.79 205.79" fill="none" stroke="#999999" stroke-width="2" stroke-miterlimit="10" pointer-events="stroke"/><ellipse cx="422" cy="186" rx="40" ry="40" fill="#fe6357" stroke="none" pointer-events="all"/><path d="M 401.05 181.02 C 401.09 180.1 401.84 179.38 402.74 179.38 L 441.27 179.38 C 442.17 179.38 442.91 180.1 442.96 181.02 L 443 190.94 C 443 191.4 442.82 191.85 442.49 192.17 C 442.16 192.5 441.72 192.67 441.27 192.66 L 402.74 192.66 C 402.29 192.66 401.86 192.48 401.54 192.16 C 401.22 191.83 401.05 191.39 401.05 190.94 Z M 406.12 189.51 C 406.12 188.97 405.84 188.48 405.38 188.21 C 404.92 187.94 404.36 187.94 403.9 188.21 C 403.44 188.48 403.16 188.97 403.16 189.51 C 403.16 190.05 403.44 190.55 403.9 190.82 C 404.36 191.09 404.92 191.09 405.38 190.82 C 405.84 190.55 406.12 190.05 406.12 189.51 Z M 431.5 189.38 C 431.24 189.38 431.03 189.6 431.03 189.86 C 431.03 190.12 431.24 190.33 431.5 190.33 L 439.95 190.33 C 440.21 190.33 440.42 190.12 440.42 189.86 C 440.42 189.6 440.21 189.38 439.95 189.38 Z M 431.5 187.74 C 431.24 187.74 431.03 187.96 431.03 188.22 C 431.03 188.48 431.24 188.69 431.5 188.69 L 439.95 188.69 C 440.21 188.69 440.42 188.48 440.42 188.22 C 440.42 187.96 440.21 187.74 439.95 187.74 Z M 431.5 186.06 C 431.24 186.06 431.03 186.27 431.03 186.54 C 431.03 186.8 431.24 187.01 431.5 187.01 L 439.95 187.01 C 440.21 187.01 440.42 186.8 440.42 186.54 C 440.42 186.27 440.21 186.06 439.95 186.06 Z M 401 166.64 C 401.05 165.72 401.79 165 402.69 165 L 441.22 165 C 442.12 165 442.87 165.72 442.91 166.64 L 442.95 176.56 C 442.95 177.02 442.77 177.47 442.44 177.79 C 442.12 178.12 441.68 178.29 441.22 178.28 L 402.69 178.28 C 402.24 178.28 401.81 178.1 401.5 177.78 C 401.18 177.45 401 177.02 401 176.56 Z M 406.08 175.13 C 406.08 174.6 405.79 174.1 405.33 173.83 C 404.88 173.56 404.31 173.56 403.85 173.83 C 403.4 174.1 403.11 174.6 403.11 175.13 C 403.11 175.67 403.4 176.17 403.85 176.44 C 404.31 176.71 404.88 176.71 405.33 176.44 C 405.79 176.17 406.08 175.67 406.08 175.13 Z M 431.45 175.01 C 431.19 175.01 430.98 175.22 430.98 175.48 C 430.98 175.74 431.19 175.95 431.45 175.95 L 439.91 175.95 C 440.17 175.95 440.37 175.74 440.37 175.48 C 440.37 175.22 440.17 175.01 439.91 175.01 Z M 431.45 173.37 C 431.19 173.37 430.98 173.58 430.98 173.84 C 430.98 174.1 431.19 174.32 431.45 174.32 L 439.91 174.32 C 440.17 174.32 440.37 174.1 440.37 173.84 C 440.37 173.58 440.17 173.37 439.91 173.37 Z M 431.45 171.68 C 431.19 171.68 430.98 171.9 430.98 172.16 C 430.98 172.42 431.19 172.63 431.45 172.63 L 439.91 172.63 C 440.17 172.63 440.37 172.42 440.37 172.16 C 440.37 171.9 440.17 171.68 439.91 171.68 Z M 401.05 195.34 C 401.09 194.42 401.84 193.7 402.74 193.7 L 441.27 193.7 C 442.17 193.7 442.91 194.42 442.96 195.34 L 443 205.26 C 443 205.73 442.82 206.17 442.49 206.5 C 442.16 206.82 441.72 207 441.27 206.99 L 402.74 206.99 C 402.29 206.99 401.86 206.81 401.54 206.48 C 401.22 206.16 401.05 205.72 401.05 205.26 Z M 406.12 203.84 C 406.12 203.3 405.84 202.8 405.38 202.53 C 404.92 202.26 404.36 202.26 403.9 202.53 C 403.44 202.8 403.16 203.3 403.16 203.84 C 403.16 204.38 403.44 204.88 403.9 205.15 C 404.36 205.42 404.92 205.42 405.38 205.15 C 405.84 204.88 406.12 204.38 406.12 203.84 Z M 431.5 203.71 C 431.24 203.71 431.03 203.92 431.03 204.18 C 431.03 204.45 431.24 204.66 431.5 204.66 L 439.95 204.66 C 440.21 204.66 440.42 204.45 440.42 204.18 C 440.42 203.92 440.21 203.71 439.95 203.71 Z M 431.5 202.07 C 431.24 202.07 431.03 202.28 431.03 202.55 C 431.03 202.81 431.24 203.02 431.5 203.02 L 439.95 203.02 C 440.21 203.02 440.42 202.81 440.42 202.55 C 440.42 202.28 440.21 202.07 439.95 202.07 Z M 431.5 200.39 C 431.24 200.39 431.03 200.6 431.03 200.86 C 431.03 201.13 431.24 201.34 431.5 201.34 L 439.95 201.34 C 440.21 201.34 440.42 201.13 440.42 200.86 C 440.42 200.6 440.21 200.39 439.95 200.39 Z" fill="#ffffff" stroke="none" pointer-events="all"/><ellipse cx="301" cy="459" rx="30" ry="30" fill="#fe6357" stroke="none" pointer-events="all"/><rect x="292.08" y="443.63" width="17.84" height="30.75" fill="none" stroke="none" pointer-events="all"/><path d="M 292.13 446.01 C 292.08 445.38 292.27 444.76 292.65 444.31 C 293.03 443.86 293.55 443.62 294.09 443.66 L 308.06 443.66 C 309.06 443.66 309.87 444.58 309.92 445.73 L 309.92 472.43 C 309.86 473.35 309.31 474.14 308.54 474.38 L 293.56 474.38 C 292.83 474.19 292.26 473.5 292.13 472.64 Z M 298.02 444.68 C 297.78 444.77 297.63 445.02 297.63 445.3 C 297.63 445.58 297.78 445.83 298.02 445.92 L 304.11 445.92 C 304.34 445.83 304.5 445.58 304.5 445.3 C 304.5 445.02 304.34 444.77 304.11 444.68 Z M 293.91 446.85 L 293.91 469.06 L 308.19 469.06 L 308.19 446.85 Z M 299.61 470.97 C 299.28 470.97 299.01 471.28 299.01 471.67 C 299.01 472.05 299.28 472.36 299.61 472.36 L 302.6 472.36 C 302.93 472.36 303.2 472.05 303.2 471.67 C 303.2 471.28 302.93 470.97 302.6 470.97 Z" fill="#ffffff" stroke="none" pointer-events="all"/><ellipse cx="64" cy="349" rx="30" ry="30" fill="#fe6357" stroke="none" pointer-events="all"/><path d="M 65.63 339.25 C 67.42 339.25 68.88 340.71 68.88 342.5 L 68.88 349 C 68.88 350.79 67.42 352.25 65.63 352.25 L 55.88 352.25 L 52.63 355.5 L 52.63 352.25 L 51 352.25 C 49.21 352.25 47.76 350.79 47.76 349 L 47.76 342.5 C 47.76 340.71 49.21 339.25 51 339.25 Z" fill="none" stroke="#ffffff" stroke-width="2" stroke-miterlimit="10" pointer-events="all"/><path d="M 77 342.5 C 77.86 342.5 78.69 342.84 79.3 343.45 C 79.91 344.06 80.25 344.89 80.25 345.75 L 80.25 352.25 C 80.25 353.11 79.91 353.94 79.3 354.55 C 78.69 355.16 77.86 355.5 77 355.5 L 75.38 355.5 L 75.38 358.75 L 72.13 355.5 L 62.38 355.5 C 60.58 355.5 59.13 354.04 59.13 352.25 L 59.13 345.75 C 59.13 343.96 60.58 342.5 62.38 342.5 Z" fill="none" stroke="#ffffff" stroke-width="2" stroke-miterlimit="10" pointer-events="all"/><ellipse cx="154" cy="126" rx="40" ry="40" fill="#fe6357" stroke="none" pointer-events="all"/><path d="M 129 111 C 129 105.48 133.48 101 139 101 L 169 101 C 174.52 101 179 105.48 179 111 L 179 141 C 179 146.52 174.52 151 169 151 L 139 151 C 133.48 151 129 146.52 129 141 Z" fill="none" stroke="none" pointer-events="all"/><path d="M 138.5 122.25 C 142.48 117.9 148.1 115.42 154 115.42 C 159.9 115.42 165.52 117.9 169.5 122.25 L 166.75 124.5 C 163.44 120.98 158.83 118.99 154 118.99 C 149.17 118.99 144.56 120.98 141.25 124.5 Z" fill="#ffffff" stroke="none" pointer-events="all"/><path d="M 144.25 127 C 149.86 122.2 158.14 122.2 163.75 127 L 161 129.5 C 156.94 126.15 151.06 126.15 147 129.5 Z" fill="#ffffff" stroke="none" pointer-events="all"/><path d="M 150 132.75 C 152.28 130.71 155.72 130.71 158 132.75 L 154 136.75 Z" fill="#ffffff" stroke="none" pointer-events="all"/><ellipse cx="212" cy="227" rx="30" ry="30" fill="#7da823" stroke="none" pointer-events="all"/><rect x="193.25" y="215.75" width="37.5" height="22.5" fill="none" stroke="none" pointer-events="all"/><path d="M 196.43 233.2 L 196.43 216.76 C 196.66 216.22 197.16 215.83 197.74 215.75 L 226.14 215.75 C 226.86 215.83 227.45 216.35 227.61 217.06 L 227.61 233.2 L 230.62 236.46 C 230.75 236.86 230.62 237.28 230.27 237.62 C 229.91 237.96 229.36 238.19 228.74 238.25 L 195.3 238.25 C 194.67 238.2 194.11 237.97 193.75 237.63 C 193.38 237.29 193.25 236.86 193.38 236.46 Z M 197.67 233.2 L 226.48 233.24 L 226.48 217.39 C 226.34 217 226 216.71 225.58 216.65 L 198.42 216.65 C 198.01 216.79 197.72 217.15 197.67 217.58 Z M 209.1 235.41 L 208.09 236.87 L 215.16 236.87 L 214.37 235.41 Z" fill="#ffffff" stroke="none" pointer-events="all"/><ellipse cx="302" cy="340" rx="25" ry="25" fill="#7da823" stroke="none" pointer-events="all"/><path d="M 294.73 334.78 C 294.98 333.68 295.4 332.52 295.87 331.61 C 296.47 330.53 297.03 329.77 297.56 329.17 C 295.69 329.82 293.25 331.28 291.75 333.79 C 292.21 334.25 293.77 334.58 294.73 334.78 Z M 300.83 335.23 L 300.83 328.72 C 299.64 328.78 298.36 329.75 297.57 331.07 C 296.75 332.19 296.27 333.53 295.86 334.93 C 297.5 335.17 299.25 335.22 300.83 335.23 Z M 306.9 334.94 C 306.55 333.75 306.06 332.45 305.41 331.41 C 304.69 330.18 303.58 328.92 301.98 328.81 L 301.98 335.23 C 303.73 335.24 305.61 335.1 306.9 334.94 Z M 308.01 334.76 C 309.6 334.51 310.51 334.17 311.04 333.84 C 310.53 333.01 309.75 332.02 308.77 331.26 C 307.41 330.1 306.1 329.47 305.21 329.17 C 306.62 330.74 307.51 332.68 308.01 334.76 Z M 308.64 339.37 L 311.63 339.37 L 312.79 338.97 C 312.69 337.47 312.24 336.12 311.6 334.84 C 311.02 335.24 309.48 335.71 308.28 335.89 C 308.49 337.14 308.58 338.27 308.64 339.37 Z M 301.98 339.37 L 307.46 339.37 C 307.41 338.34 307.38 337.32 307.1 336.09 C 305.64 336.22 303.8 336.36 301.98 336.38 Z M 295.26 339.37 L 300.83 339.37 L 300.83 336.4 C 299.04 336.37 297.01 336.25 295.6 336.04 C 295.38 337.34 295.3 338.39 295.26 339.37 Z M 289.98 339.37 L 294.11 339.37 L 294.46 335.86 C 293.43 335.7 291.79 335.36 291.13 334.74 C 290.33 336.46 289.91 337.99 289.98 339.37 Z M 291.18 345.25 C 291.91 344.7 293.09 344.43 294.58 344.15 C 294.31 343.14 294.16 341.89 294.09 340.49 L 289.89 340.49 C 290 342.65 290.57 344.09 291.18 345.25 Z M 300.83 343.65 L 300.83 340.49 L 295.24 340.49 C 295.32 341.74 295.47 343.11 295.7 343.99 C 296.96 343.79 298.77 343.7 300.83 343.65 Z M 301.98 343.66 C 303.29 343.63 305.49 343.75 306.78 343.96 L 306.96 343.71 L 306.27 343.03 C 305.99 342.74 305.81 342.25 306.01 341.62 C 306.19 341.05 306.91 340.74 307.46 340.66 L 307.48 340.49 L 301.98 340.49 Z M 301.98 348.6 C 303.4 347.64 304.82 346.33 305.92 344.99 C 304.54 344.89 303.19 344.8 301.98 344.8 Z M 298.64 349.75 C 299.58 349.66 300.45 349.4 300.83 349.15 L 300.83 344.8 C 299.15 344.84 297.49 344.89 296 345.11 C 296.51 346.87 297.33 348.62 298.64 349.75 Z M 296.88 350.59 C 296.93 350.39 297.13 350.2 297.31 350.09 C 296.41 349.07 295.46 347.43 294.82 345.29 C 293.52 345.46 292.35 345.82 291.75 346.27 C 293.06 348.34 295.03 349.79 296.88 350.59 Z M 298.01 351.25 C 299.9 351.88 303.66 351.94 306.76 350.55 C 309.05 349.52 310.5 348.44 311.7 346.82 C 311.93 346.47 312.14 346.45 312.45 346.72 L 313.73 347.73 L 314.41 339.88 L 307.26 342.13 L 308.61 343.41 C 308.77 343.54 308.73 343.68 308.65 343.81 C 307.41 345.32 305.95 347.08 304.51 348.35 C 302.25 350.27 301.04 350.76 298.01 351.25 Z M 312.24 348.29 C 309.88 351.05 305.27 353.13 301.42 353.13 C 293.66 353.13 288.19 346.86 288.19 339.94 C 288.19 333.03 293.98 326.88 301.36 326.88 C 305.97 326.88 313.29 329.97 314.4 338.55 C 315.1 338.52 315.82 339.09 315.79 339.97 L 315.09 347.68 C 315.04 348.26 314.74 348.8 314.08 349.01 C 313.46 349.14 313.04 348.98 312.24 348.29 Z" fill="#ffffff" stroke="none" pointer-events="all"/><ellipse cx="515" cy="295" rx="40" ry="40" fill="#7da823" stroke="none" pointer-events="all"/><rect x="495" y="275" width="40" height="40" fill="none" stroke="none" pointer-events="all"/><path d="M 498.39 281.31 C 498.39 283.7 498.39 286.09 498.39 288.49 L 504.84 288.49 L 504.84 281.31 Z M 507.14 281.31 C 507.14 283.7 507.14 286.09 507.14 288.49 L 513.59 288.49 L 513.59 281.31 Z M 515.9 281.31 C 515.9 283.7 515.9 286.09 515.9 288.49 L 522.35 288.49 L 522.35 281.31 Z M 524.65 281.31 C 524.65 283.7 524.65 286.09 524.65 288.49 L 531.11 288.49 L 531.11 281.31 Z M 499.46 282.36 L 503.77 282.36 L 503.77 287.44 L 499.46 287.44 Z M 508.21 282.36 L 512.53 282.36 L 512.53 287.44 L 508.21 287.44 Z M 516.97 282.36 L 521.28 282.36 L 521.28 287.44 L 516.97 287.44 Z M 525.72 282.36 L 530.04 282.36 L 530.04 287.44 L 525.72 287.44 Z M 498.39 290.98 C 498.39 293.38 498.39 295.77 498.39 298.17 L 504.84 298.17 L 504.84 290.98 Z M 507.14 290.98 C 507.14 293.38 507.14 295.77 507.14 298.17 L 513.59 298.17 L 513.59 290.98 Z M 515.9 290.98 C 515.9 293.38 515.9 295.77 515.9 298.17 L 522.35 298.17 L 522.35 290.98 Z M 524.65 290.98 C 524.65 293.38 524.65 295.77 524.65 298.17 L 531.11 298.17 L 531.11 290.98 Z M 499.46 292.03 L 503.77 292.03 L 503.77 297.12 L 499.46 297.12 Z M 508.21 292.03 L 512.53 292.03 L 512.53 297.12 L 508.21 297.12 Z M 516.97 292.03 L 521.28 292.03 L 521.28 297.12 L 516.97 297.12 Z M 525.72 292.03 L 530.04 292.03 L 530.04 297.12 L 525.72 297.12 Z M 495 275 L 495 315 L 535 315 L 535 275 Z M 496.07 276.05 L 533.93 276.05 L 533.93 313.95 L 519.4 313.95 L 519.4 300.78 L 510.2 300.78 L 510.2 313.95 L 496.07 313.95 Z M 511.27 301.83 L 518.33 301.83 L 518.33 313.95 L 511.27 313.95 Z" fill="#ffffff" stroke="none" pointer-events="all"/><ellipse cx="174" cy="447" rx="25" ry="25" fill="#7da823" stroke="none" pointer-events="all"/><rect x="159.94" y="430.13" width="28.13" height="33.75" fill="none" stroke="none" pointer-events="all"/><path d="M 177.58 446.6 C 177.58 444.13 179.59 442.13 182.06 442.13 C 184.52 442.13 186.53 444.13 186.53 446.6 C 186.53 449.06 184.52 451.07 182.06 451.07 C 179.59 451.07 177.58 449.06 177.58 446.6 Z M 167.11 460.69 C 167.11 459.78 167.85 459.04 168.76 459.04 C 169.67 459.04 170.42 459.78 170.42 460.69 C 170.42 461.6 169.67 462.34 168.76 462.34 C 167.85 462.34 167.11 461.6 167.11 460.69 Z M 168.76 431.66 C 169.67 431.66 170.42 432.4 170.42 433.31 C 170.42 434.22 169.67 434.96 168.76 434.96 C 167.85 434.96 167.11 434.22 167.11 433.31 C 167.11 432.4 167.85 431.66 168.76 431.66 Z M 161.47 455.06 C 161.47 454.15 162.22 453.4 163.13 453.4 C 164.04 453.4 164.78 454.15 164.78 455.06 C 164.78 455.97 164.04 456.71 163.13 456.71 C 162.22 456.71 161.47 455.97 161.47 455.06 Z M 163.09 447 C 163.09 446.09 163.83 445.35 164.74 445.35 C 165.65 445.35 166.39 446.09 166.39 447 C 166.39 447.91 165.65 448.65 164.74 448.65 C 163.83 448.65 163.09 447.91 163.09 447 Z M 161.47 438.94 C 161.47 438.03 162.22 437.29 163.13 437.29 C 164.04 437.29 164.78 438.03 164.78 438.94 C 164.78 439.86 164.04 440.6 163.13 440.6 C 162.22 440.6 161.47 439.86 161.47 438.94 Z M 178.39 441.85 L 171.48 434.94 C 171.77 434.46 171.95 433.91 171.95 433.31 C 171.95 431.55 170.52 430.13 168.76 430.13 C 167.01 430.13 165.58 431.55 165.58 433.31 C 165.58 435.06 167.01 436.49 168.76 436.49 C 169.36 436.49 169.92 436.31 170.4 436.02 L 177.31 442.94 C 177.12 443.19 176.94 443.45 176.78 443.74 L 166.28 439.23 C 166.29 439.14 166.31 439.04 166.31 438.94 C 166.31 437.19 164.88 435.76 163.13 435.76 C 161.37 435.76 159.94 437.19 159.94 438.94 C 159.94 440.7 161.37 442.13 163.13 442.13 C 164.24 442.13 165.21 441.55 165.78 440.69 L 176.23 445.17 C 176.15 445.51 176.09 445.87 176.07 446.24 L 167.82 446.24 C 167.47 444.85 166.23 443.82 164.74 443.82 C 162.98 443.82 161.56 445.25 161.56 447 C 161.56 448.75 162.98 450.18 164.74 450.18 C 166.23 450.18 167.47 449.15 167.82 447.77 L 176.17 447.77 C 176.24 448.1 176.34 448.43 176.46 448.74 L 165.78 453.31 C 165.21 452.45 164.24 451.87 163.13 451.87 C 161.37 451.87 159.94 453.3 159.94 455.06 C 159.94 456.81 161.37 458.24 163.13 458.24 C 164.88 458.24 166.31 456.81 166.31 455.06 C 166.31 454.96 166.29 454.86 166.28 454.77 L 177.12 450.12 L 176.97 449.77 C 177.18 450.1 177.42 450.41 177.68 450.69 L 170.4 457.98 C 169.92 457.69 169.36 457.51 168.76 457.51 C 167.01 457.51 165.58 458.94 165.58 460.69 C 165.58 462.45 167.01 463.88 168.76 463.88 C 170.52 463.88 171.95 462.45 171.95 460.69 C 171.95 460.09 171.77 459.54 171.48 459.06 L 178.87 451.67 C 179.79 452.26 180.88 452.6 182.06 452.6 C 185.36 452.6 188.06 449.91 188.06 446.6 C 188.06 443.29 185.36 440.6 182.06 440.6 C 180.68 440.6 179.41 441.07 178.39 441.85 Z" fill="#ffffff" stroke="none" pointer-events="all"/></g></svg>